<svg width="32" height="32" viewBox="0 0 32 32" fill="none" xmlns="http://www.w3.org/2000/svg">
<path d="M23.1256 8.04395L23.9408 8.85916L8.85935 23.9406L8.04414 23.1254L23.1256 8.04395Z" fill="#2A2828"/>
<path fill-rule="evenodd" clip-rule="evenodd" d="M23.1256 7.33691L24.6479 8.85924L8.85935 24.6478L7.33703 23.1255L23.1256 7.33691ZM23.1256 8.75113L8.75124 23.1255L8.85935 23.2336L23.2337 8.85924L23.1256 8.75113Z" fill="#2A2828"/>
<path d="M23.9408 22.7178L23.1256 23.533L8.04411 8.45151L8.85932 7.6363L23.9408 22.7178Z" fill="#2A2828"/>
<path fill-rule="evenodd" clip-rule="evenodd" d="M24.6479 22.7178L23.1256 24.2401L7.33699 8.45151L8.85931 6.92919L24.6479 22.7178ZM23.2337 22.7178L8.85931 8.3434L8.7512 8.45151L23.1256 22.8259L23.2337 22.7178Z" fill="#2A2828"/>
</svg>
