<svg fill="none" height="44" viewBox="0 0 218 44" width="218" xmlns="http://www.w3.org/2000/svg"><g fill="#2a2828"><path d="m218 34.4937c-1.533 0-3.143 0-4.752 0 0-.3833 0-.6899 0-.9965 0-3.3727 0-6.8221 0-10.1948 0-.3066 0-.5366 0-.8432-.077-3.0661-1.38-4.4458-4.14-4.4458-2.989 0-5.212 1.9929-5.289 4.7524-.076 3.5261 0 7.1287 0 10.6547v1.0732c-1.609 0-3.142 0-4.752 0 0-6.3622 0-12.801 0-19.2398h4.369v2.8361c2.223-2.7595 4.906-3.7559 8.049-3.4493 3.296.3066 5.672 1.763 6.515 5.2123z"/><path d="m121.801 34.4936c-1.686 0-3.219 0-4.752 0 0-6.4388 0-12.8009 0-19.3164h4.522v2.3762c.077.0767.153.0767.153.1533 1.61-2.1463 3.833-3.1427 6.439-3.1427s4.829.6132 6.286 3.1427c1.303-1.533 2.836-2.6062 4.829-2.9128 1.763-.3066 3.526-.2299 5.289.23 2.223.6132 3.679 2.1463 3.756 4.4458.153 4.9824.076 9.9649.076 15.0239-1.456 0-2.989 0-4.675 0 0-.3832 0-.7665 0-1.1498 0-3.9092 0-7.8185-.077-11.6511-.077-2.3763-.996-3.3728-3.066-3.6027-2.53-.3066-4.446.7665-5.059 2.8361-.23.8432-.307 1.6864-.307 2.5296v11.1146c-1.609 0-3.143 0-4.829 0 0-.3066 0-.6132 0-.9965 0-3.8326 0-7.5886 0-11.4212 0-1.4564-.153-2.9128-1.61-3.6794-1.533-.7665-3.142-.6898-4.675.23-1.61.9965-2.223 2.5295-2.223 4.3692v10.4248c-.077.2299-.077.5365-.077.9964z"/><path d="m90.22 16.6335c-1.533 0-3.1427 0-4.6758 0-.1533 0-.4599-.2299-.5366-.3832-1.1497-3.2961-3.6026-4.7525-6.9753-4.7525-3.3728 0-6.0556 1.3031-7.742 4.3692-2.0696 3.9093-1.533 9.5816 1.0732 12.801 2.9128 3.526 10.4247 4.1392 12.9543-.9965.4599-.9198.6898-1.993 1.0731-3.0661h4.8291c-.1533 2.6062-1.0731 4.8291-2.7595 6.7454-1.8396 2.0696-4.2159 3.2194-6.9754 3.6027-4.3692.6899-8.4317 0-11.9578-2.9128-4.2925-3.4494-5.8256-9.7349-3.9859-15.3305 1.763-5.2124 6.3622-8.66177 11.9578-8.96838 2.9895-.1533 5.9022.22996 8.6617 1.68636 3.0661 1.53302 4.9825 4.29252 5.0591 7.20532z"/><path d="m167.639 17.4768c0-3.3728 0-6.5155 0-9.73492h4.753v26.75172c-1.457 0-2.837 0-4.446 0 0-.7665 0-1.533 0-2.5295-2.453 3.0661-5.596 3.4494-8.969 2.9895-4.599-.6899-7.665-3.986-7.972-8.7384-.076-1.5331-.076-3.0661.23-4.5225.997-4.5992 4.906-7.3587 9.582-7.0521 2.683.0767 4.906.7665 6.822 2.8362zm.23 7.282c-.077-.7666-.153-1.4564-.307-2.0697-.536-2.8361-2.606-4.5991-5.365-4.6758-3.066-.1533-5.289 1.3798-6.056 4.2159-.306 1.2265-.46 2.4529-.383 3.6793.153 3.2961 2.376 5.4424 5.442 5.749 2.99.2299 5.443-1.5331 6.209-4.5992.307-.7665.383-1.6097.46-2.2995z"/><path d="m107.007 32.8073c-3.526 2.2229-7.2052 2.9128-11.0378 1.6097-3.0661-.9965-4.3692-3.4493-3.756-6.5154.3833-1.7631 1.4564-3.0661 3.1428-3.5261 2.1463-.6132 4.4458-.9198 6.669-1.3031 1.073-.2299 2.146-.3066 3.219-.5365.92-.23 1.61-.7666 1.687-1.8397.076-.9198-.384-1.763-1.38-2.2229-2.07-.8432-4.139-.8432-6.1324.0766-.9965.46-1.3031.9965-1.763 2.4529-1.5331 0-3.0661 0-4.6758 0 .1533-2.2996 1.1498-4.0626 3.1427-4.9824 4.1395-1.993 8.4315-2.0696 12.5715-.1533 1.916.8432 2.836 2.4529 2.836 4.6758v8.8917c0 2.2229 0 2.2996 2.299 2.2229v2.5296c0 .1533-.23.4599-.383.4599-1.303.1533-2.53.3832-3.833.3066-1.379-.0767-2.299-.8432-2.606-2.1463zm-.46-7.6652c-1.686.2299-3.296.4599-4.905.7665-1.227.2299-2.3767.4599-3.5265.9965-.9965.3832-1.3031 1.3797-1.3031 2.4529.0766.9964.6899 1.533 1.533 1.8396 2.2996.8432 4.5226.6899 6.5926-.5366.843-.4599 1.456-1.2264 1.456-2.2229.23-1.1498.153-2.2996.153-3.296z"/><path d="m196.077 25.9085c-2.682 0-5.289 0-7.972 0-2.606 0-5.289 0-7.895 0-.23 2.2996 1.303 4.6758 3.526 5.3657 3.143.9965 5.903 0 7.512-2.8361h4.523c-.307 1.533-1.073 2.7594-2.147 3.8326-3.985 3.8326-11.881 3.756-15.637-.3066-2.989-3.2194-3.296-7.1287-1.839-11.038 1.379-3.8326 4.369-5.9022 8.431-6.2855 4.446-.4599 8.126.9965 10.425 4.9824.997 1.9163 1.303 3.9859 1.073 6.2855zm-4.905-2.8361c-.154-3.1428-2.683-5.2891-5.826-5.0591-2.913.23-5.289 2.5295-5.059 5.0591z"/><g clip-rule="evenodd" fill-rule="evenodd"><path d="m48.9809 35.5669h-12.0344v-1.3031h3.526s1.9163-.3067.9965-2.0697c-.0767-.0766-.3833-.1533-.3833-.1533h-4.9824l-7.1287 3.3727v7.5887h13.9508s5.519-1.2265 6.0555-7.4353z"/><path d="m6.66895 35.5669h12.03445v-1.3031h-3.526s-1.9163-.3067-.9965-2.0697c.0767-.0766.3833-.1533.3833-.1533h4.9824l7.1287 3.3727v7.5887h-13.9508s-5.51899-1.2265-6.05555-7.4353z"/><path d="m20.0063 30.5077h-12.11108v1.3031h3.52598s1.9164.3066.9965 2.0696c-.0766.0767-.3832.1533-.3832.1533h-4.90581l-7.12869-3.3727v-7.5886h13.9508s5.4423 1.2264 6.0555 7.4353z"/><path d="m48.9809 7.4353h-12.0344v1.30309h3.526s1.9163.30662.9965 2.06961c-.0767.0767-.3833.1533-.3833.1533h-4.9824l-7.1287-3.37269v-7.58861h13.9508s5.519 1.22644 6.0555 7.4353z"/><path d="m6.66895 7.4353h12.03445v1.30309h-3.526s-1.9163.30662-.9965 2.06961c.0767.0767.3833.1533.3833.1533h4.9824l7.1287-3.37269v-7.58861h-13.9508s-5.51899 1.22644-6.05555 7.4353z"/><path d="m20.0063 12.4943h-12.11108v-1.3031h3.52598s1.9164-.3066.9965-2.06963c-.0766-.07666-.3832-.15331-.3832-.15331h-4.90581l-7.12869 3.37274v7.5886h13.9508s5.4423-1.2265 6.0555-7.4353z"/><path d="m35.9502 12.4943h12.0344v-1.3031h-3.526s-1.9163-.3066-.9965-2.06963c.0767-.07666.3833-.15331.3833-.15331h4.9824l7.1287 3.37274v7.5886h-13.8741s-5.519-1.2265-6.1322-7.4353z"/><path d="m35.9502 30.5077h12.0344v1.3031h-3.526s-1.9163.3066-.9965 2.0696c.0767.0767.3833.1533.3833.1533h4.9824l7.1287-3.3727v-7.5886h-13.8741s-5.519 1.2264-6.1322 7.4353z"/></g></g></svg>