<svg width="252" height="64" viewBox="0 0 252 64" fill="none" xmlns="http://www.w3.org/2000/svg">
<path d="M76.5466 11.1728H83.4904C87.325 11.1728 88.8796 13.184 88.8796 15.3968C88.8796 17.2928 87.8475 18.512 86.6763 18.9952C87.8059 19.4016 89.3813 20.5792 89.3813 22.8352C89.3813 25.784 87.0837 27.776 83.7045 27.776H76.5386V11.1728H76.5466ZM83.091 17.8368C85.0322 17.8368 85.796 17.024 85.796 15.7008C85.796 14.384 84.8389 13.6128 83.2555 13.6128H79.6159V17.8368H83.091ZM79.6159 25.3216H83.1389C85.1281 25.3216 86.2098 24.4608 86.2098 22.7584C86.2098 21.2704 85.224 20.2912 82.9743 20.2912H79.6223V25.3216H79.6159ZM101.46 24.1712C101.46 25.3712 101.46 26.7824 101.487 27.768H98.5907C98.5428 27.432 98.522 26.7344 98.4949 26.2112C97.7999 27.4784 96.6702 28.0576 94.9974 28.0576C92.6231 28.0576 90.9024 26.6928 90.9024 23.5024V15.4448H93.8758V22.9024C93.8758 24.3424 94.3088 25.5904 95.9816 25.5904C97.7775 25.5904 98.5013 24.6048 98.5013 21.9728V15.4448H101.473V24.1712H101.46ZM114.178 23.8608C113.725 25.9216 112.287 28.0576 108.791 28.0576C105.1 28.0576 103.092 25.4656 103.092 21.6752C103.092 18.0992 105.225 15.1488 108.962 15.1488C112.892 15.1488 114.091 17.9808 114.186 19.4432H111.261C111.021 18.3392 110.373 17.5264 108.887 17.5264C107.112 17.5264 106.134 19.0624 106.134 21.5792C106.134 24.2672 107.139 25.7072 108.866 25.7072C110.16 25.7072 110.876 24.9632 111.24 23.8608H114.18H114.178ZM118.494 20.8624C119.451 19.6352 121.44 17.4096 123.14 15.4384H126.588L122.183 20.1392L127.021 27.768H123.621L120.173 22.0624L118.496 23.6672V27.768H115.521V10.2352H118.494V20.8624ZM127.496 10.2352H130.469V13.136H127.497V10.2352H127.496ZM127.496 15.4384H130.469V27.768H127.497V15.44L127.496 15.4384ZM132.816 18.5328C132.816 17.4784 132.816 16.376 132.789 15.4384H135.665C135.735 15.776 135.783 16.7824 135.783 17.168C136.216 16.3072 137.221 15.1552 139.452 15.1552C141.874 15.1552 143.547 16.7408 143.547 19.904V27.776H140.573V20.24C140.573 18.704 140.022 17.6 138.392 17.6C136.643 17.6 135.783 18.7312 135.783 21.0064V27.7744H132.81V18.5312H132.816V18.5328ZM156.699 26.4032C156.699 30.36 155.164 32.7872 150.732 32.7872C146.491 32.7872 145.507 30.408 145.363 28.9264H148.385C148.672 29.9328 149.465 30.5584 150.848 30.5584C153.271 30.5584 153.772 29.0704 153.772 26.5072V25.7904C153.127 26.9616 152.074 27.6576 150.18 27.6576C147.022 27.6576 145.08 25.0656 145.08 21.6336C145.08 17.7264 147.407 15.1552 150.449 15.1552C152.652 15.1552 153.568 16.1888 153.78 16.8384C153.807 16.4304 153.876 15.6656 153.897 15.4464H156.725C156.706 16.4032 156.706 17.7952 156.706 18.9952V26.4032H156.699ZM151 25.2256C153.25 25.2256 153.876 23.6672 153.876 21.3856C153.876 19.0576 153.395 17.5744 151.075 17.5744C149.327 17.5744 148.151 18.9664 148.151 21.5104C148.151 23.792 149.321 25.2256 151 25.2256ZM161.943 10.2352V17.024C162.514 16.1136 163.546 15.1552 165.584 15.1552C167.765 15.1552 169.707 16.424 169.707 19.8832V27.776H166.76V20.3392C166.76 18.56 166.092 17.6032 164.53 17.6032C162.521 17.6032 161.943 19.0432 161.943 21.152V27.776H158.97V10.24H161.943V10.2336V10.2352ZM181.757 24.7504C181.757 25.9008 181.854 27.4576 181.923 27.768H179.073C178.977 27.5072 178.908 26.88 178.881 26.424C178.446 27.168 177.56 28.0576 175.308 28.0576C172.364 28.0576 171.117 26.1136 171.117 24.2176C171.117 21.4336 173.348 20.1376 176.96 20.1376H178.825V19.2976C178.825 18.3408 178.517 17.3344 176.671 17.3344C175.04 17.3344 174.709 18.0784 174.538 18.9872H171.688C171.854 16.976 173.127 15.128 176.788 15.1488C179.996 15.1696 181.75 16.4448 181.75 19.3248V24.7488H181.757V24.7504ZM178.86 22.0144H177.25C175.067 22.0144 174.112 22.6608 174.112 24.0528C174.112 25.0608 174.778 25.88 176.101 25.88C178.544 25.88 178.854 24.1984 178.854 22.3792V22.0128H178.86V22.0144ZM184.077 18.608C184.077 17.5536 184.077 16.472 184.05 15.4448H186.898C186.946 15.7552 186.994 16.528 187.023 17.0512C187.621 16.0656 188.654 15.1552 190.498 15.1552C192.246 15.1552 193.299 16.0656 193.753 17.1472C194.448 16.0928 195.55 15.1552 197.587 15.1552C199.693 15.1552 201.489 16.424 201.489 19.6912V27.776H198.564V20.048C198.564 18.8224 198.131 17.5824 196.555 17.5824C194.924 17.5824 194.256 18.7328 194.256 20.7248V27.776H191.331V20.144C191.331 18.7792 190.973 17.6 189.368 17.6C187.766 17.6 187.023 18.704 187.023 20.9088V27.7728H184.077V18.608ZM205.64 24.1232C205.929 25.2256 206.789 25.8512 208.2 25.8512C209.638 25.8512 210.189 25.3008 210.189 24.44C210.189 23.5024 209.638 23.1168 207.698 22.64C203.843 21.704 203.168 20.504 203.168 18.8016C203.168 17.0032 204.435 15.1552 207.958 15.1552C211.504 15.1552 212.796 17.12 212.921 18.8288H210.072C209.954 18.2496 209.542 17.2928 207.842 17.2928C206.5 17.2928 206.094 17.92 206.094 18.56C206.094 19.256 206.527 19.616 208.605 20.1184C212.584 21.0272 213.231 22.4 213.231 24.2192C213.231 26.28 211.627 28.0592 208.104 28.0592C204.531 28.0592 203.004 26.3072 202.714 24.1232H205.64ZM217.518 10.2352V17.024C218.09 16.1136 219.122 15.1552 221.159 15.1552C223.341 15.1552 225.281 16.424 225.281 19.8832V27.776H222.336V20.3392C222.336 18.56 221.669 17.6032 220.106 17.6032C218.09 17.6032 217.518 19.0432 217.518 21.152V27.776H214.546V10.24H217.518V10.2336V10.2352ZM227.58 10.2352H230.554V13.136H227.58V10.2352ZM227.58 15.4384H230.554V27.768H227.58V15.44V15.4384ZM232.874 18.7744C232.874 17.3824 232.874 16.3488 232.845 15.4384H235.77C235.818 15.7264 235.839 16.8784 235.839 17.72C236.417 16.232 237.78 15.176 239.865 15.1552V18.0368C237.374 18.0096 235.839 18.8976 235.839 22.1856V27.776H232.866V18.7744H232.874ZM243.032 22.2272C243.032 24.0736 243.967 25.68 245.812 25.68C247.396 25.68 247.897 24.9568 248.234 24.1712H251.229C250.775 25.7072 249.433 28.0592 245.715 28.0592C241.738 28.0592 240.038 24.984 240.038 21.7712C240.038 17.9616 241.978 15.1488 245.86 15.1488C250.003 15.1488 251.393 18.2432 251.393 21.1728C251.393 21.5792 251.393 21.8688 251.345 22.2272H243.032ZM248.393 20.3312C248.365 18.6768 247.65 17.3344 245.833 17.3344C244.008 17.3344 243.272 18.5824 243.101 20.3312H248.393ZM90.2968 48.4992C89.6018 51.4976 87.3522 53.6832 83.353 53.6832C78.2051 53.6832 75.7142 49.9616 75.7142 45.24C75.7142 40.7056 78.253 36.624 83.4968 36.624C87.7149 36.624 89.8431 39.0928 90.2968 41.8768H87.186C86.753 40.416 85.748 39.12 83.3738 39.12C80.1863 39.12 78.9208 42 78.9208 45.144C78.9208 48.0928 80.0712 51.216 83.4696 51.216C85.8918 51.216 86.753 49.6784 87.186 48.5072H90.2968V48.4992ZM103.14 47.2736C103.14 50.9472 100.986 53.752 97.124 53.752C93.3869 53.752 91.2059 51.016 91.2059 47.32C91.2059 43.5792 93.4348 40.8432 97.2694 40.8432C100.84 40.8432 103.14 43.4128 103.14 47.2736ZM94.2273 47.2928C94.2273 49.7888 95.3553 51.3728 97.1991 51.3728C99.0653 51.3728 100.097 49.816 100.097 47.3216C100.097 44.6608 99.0653 43.2208 97.1528 43.2208C95.3281 43.2208 94.2273 44.6128 94.2273 47.2928ZM115.212 49.864C115.212 51.064 115.212 52.4768 115.239 53.4624H112.341C112.293 53.1248 112.272 52.4288 112.245 51.904C111.55 53.1728 110.422 53.752 108.749 53.752C106.375 53.752 104.654 52.3872 104.654 49.1952V41.1312H107.626V48.5968C107.626 50.0368 108.061 51.2848 109.733 51.2848C111.529 51.2848 112.251 50.2992 112.251 47.6592V41.1312H115.225V49.864H115.212ZM117.558 44.2272C117.558 43.1712 117.558 42.0688 117.53 41.1328H120.406C120.477 41.4688 120.525 42.4768 120.525 42.8608C120.958 42 121.963 40.8432 124.193 40.8432C126.615 40.8432 128.288 42.4272 128.288 45.5904V53.4624H125.315V45.9296C125.315 44.392 124.763 43.2896 123.134 43.2896C121.384 43.2896 120.525 44.4192 120.525 46.6944V53.4624H117.553V44.2272H117.558ZM140.91 49.5536C140.457 51.6144 139.017 53.752 135.521 53.752C131.832 53.752 129.824 51.16 129.824 47.368C129.824 43.792 131.957 40.8432 135.694 40.8432C139.624 40.8432 140.821 43.6752 140.918 45.136H137.993C137.752 44.0336 137.104 43.2128 135.617 43.2128C133.843 43.2128 132.866 44.7504 132.866 47.2656C132.866 49.9536 133.869 51.3936 135.598 51.3936C136.892 51.3936 137.606 50.6496 137.972 49.5472H140.91V49.5536ZM142.328 35.928H145.301V38.8304H142.329V35.928H142.328ZM142.328 41.1328H145.301V53.4624H142.329V41.1312L142.328 41.1328ZM150.594 35.928H147.621V53.4624H150.593L150.594 35.928ZM31.955 0C14.4596 0 0.0543235 14.384 0 31.896L1.67923 31.904C1.74794 16.1408 13.9707 3.2592 29.4497 2.1712C30.283 2.10186 31.1188 2.06717 31.955 2.0672C48.4661 2.0672 61.8521 15.472 61.8521 32.0064C61.8521 41.7312 57.2202 50.368 50.0559 55.832C45.4353 59.3603 39.8845 61.4572 34.088 61.864C33.3866 61.912 32.6772 61.9392 31.963 61.9392H31.9342V61.9808C31.0539 61.96 29.691 61.8368 29.6766 61.168C29.6638 60.616 30.0824 60.168 30.4883 59.8512C31.0315 59.424 31.6722 59.12 32.3065 58.8512C32.912 58.5904 33.5304 58.3552 34.1567 58.1344C34.3578 58.0763 34.5453 57.9784 34.7079 57.8464C34.8263 57.7422 34.9064 57.6012 34.9354 57.446C34.9644 57.2908 34.9405 57.1304 34.8677 56.9904C34.6871 56.6592 34.3085 56.4672 33.9777 56.3216C32.6356 55.7504 26.0976 55.8672 25.2796 55.8816H25.1965C25.2237 55.888 32.69 56.7216 32.6979 57.1776C32.7123 57.6384 27.3583 58.6864 27.2608 62.0144C27.2336 62.9184 28.2179 63.2 28.5965 63.3312C29.9115 63.7792 30.4963 63.9648 31.8591 64H32.6356C33.6834 63.9945 34.7296 63.9186 35.7672 63.7728C51.529 61.864 63.9164 48.272 63.9164 32.0064C63.91 14.448 49.4839 0 31.955 0Z" fill="white"/>
<path d="M30.4692 44L31.5077 43.5168C31.5077 43.5168 20.3858 31.7168 1.63778 34.6128L0.0959473 34.784C0.817708 41.2885 3.51303 47.4153 7.81876 52.3387C12.1245 57.2622 17.8337 60.7457 24.1772 62.32L24.6725 60.32C13.5873 57.584 5.10809 48.7296 2.67951 37.7712C5.90696 37.0608 16.7397 35.6336 30.4708 44H30.4692Z" fill="white"/>
<path d="M60.0084 29.0562C59.9525 28.9682 59.9445 28.7682 60.0004 28.6994C60.1921 28.4642 60.1442 28.2578 59.9876 28.0594C59.8358 27.8722 59.7256 27.6786 59.74 27.4178C59.7464 27.3218 59.6761 27.1618 59.601 27.1282C59.3326 26.9906 59.3405 26.7554 59.3469 26.501C59.3533 26.3282 59.2846 26.1426 59.3198 25.9762C59.422 25.4658 58.8452 25.4946 58.7414 25.1442C58.727 25.0946 58.6311 25.0738 58.5688 25.0466C58.556 25.0386 58.5273 25.0466 58.5145 25.0386C58.2748 24.9298 58.0256 24.8402 57.7907 24.7026C57.6261 24.6066 57.4951 24.461 57.3433 24.3362C57.1372 23.8402 57.1165 23.8258 56.717 23.8466C56.4566 23.3442 56.2425 23.805 56.0028 23.9026C55.9549 23.8338 55.9261 23.7362 55.8638 23.7026C55.6785 23.5906 55.6577 23.2194 55.3765 23.2962C55.1353 23.357 54.9627 23.3506 54.8604 23.0882C54.8397 23.0402 54.771 23.0066 54.7214 22.9778C54.5153 22.861 54.3092 22.7506 54.0472 22.6066C53.6765 22.7234 53.2291 22.8546 52.8713 22.9714C52.6572 22.965 52.451 22.8962 52.3951 22.9586C52.1555 23.2546 51.9478 23.5778 51.756 23.909C51.6186 24.1362 51.192 24.2194 51.0259 24.0402C50.8741 24.109 50.7383 24.213 50.5929 24.2322C50.4075 24.261 50.3516 24.357 50.2765 24.5218C50.1806 24.7426 50.0496 25.0338 49.8627 25.101C49.4776 25.253 49.532 25.709 49.2364 25.9282C49.1405 25.997 49.1054 26.149 49.0654 26.3074C49.1197 26.3346 49.1948 26.3554 49.2028 26.3906C49.2987 26.7426 49.8771 26.7138 49.7796 27.2242C49.7461 27.389 49.8084 27.5762 49.8084 27.7474C49.8004 28.0034 49.794 28.237 50.0688 28.3746C50.1455 28.4162 50.2126 28.5666 50.2078 28.6642C50.1934 28.9266 50.3101 29.1122 50.4555 29.2978C50.6136 29.4978 50.6616 29.7058 50.4682 29.9394C50.4139 30.0082 50.4203 30.2082 50.4762 30.2978C50.6472 30.5874 50.8677 30.8498 50.5721 31.2082C50.5162 31.277 50.5449 31.429 50.5305 31.5602C50.2973 31.5122 50.2142 31.6354 50.2142 31.8626C50.2142 31.925 50.1663 32.021 50.1183 32.0417C49.8084 32.173 49.8499 32.4626 49.8211 32.7234C49.8084 32.8274 49.7668 32.9714 49.7045 33.013C49.8563 33.205 50.0768 33.413 50.3995 33.205C50.4475 33.173 50.6344 33.2482 50.6552 33.3026C50.751 33.669 51.756 34.4818 52.0724 34.4674C52.5613 34.4466 53.0358 34.1506 53.5375 34.365C53.5103 35.309 53.4624 36.6945 53.4001 37.3137C53.3522 37.8178 53.2499 38.2242 53.1317 38.5554C50.6344 38.4594 47.6338 38.6034 44.5358 39.3394C44.4482 39.1191 44.3927 38.8874 44.3712 38.6514C44.3089 37.9682 44.2754 36.3906 44.2546 35.4882C44.3089 35.4882 44.3776 35.4674 44.4399 35.461C44.5773 35.453 45.3075 35.501 45.5552 35.357L45.6574 35.565C45.8443 35.5906 46.0153 35.557 46.1048 35.6386C46.2566 35.7698 46.346 35.757 46.4834 35.6386C46.5665 35.5698 46.6975 35.549 46.7998 35.501C46.8893 35.4674 47.0347 35.4466 47.0554 35.3778C47.1513 35.061 47.4613 35.053 47.6546 34.8946C47.7712 34.7986 47.8671 34.6738 47.971 34.5634C48.0189 34.5154 48.0524 34.4466 48.1147 34.4194C48.527 34.2466 48.7411 33.9506 48.6931 33.469C48.6724 33.269 48.7203 33.1106 48.9264 33.021C48.9344 33.021 48.9344 33.013 48.9408 33.013C49.0031 32.965 49.0446 32.821 49.0574 32.725C49.0926 32.4626 49.051 32.173 49.3546 32.0417C49.4025 32.021 49.4505 31.925 49.4505 31.8626C49.4505 31.6354 49.532 31.5186 49.7668 31.5586C49.7812 31.421 49.7524 31.277 49.8084 31.2066C50.096 30.8562 49.8771 30.5938 49.7045 30.2978C49.6502 30.2082 49.6422 30.0098 49.6981 29.9394C49.8898 29.7058 49.8419 29.4978 49.6837 29.2994C49.5399 29.1122 49.4233 28.9266 49.4361 28.6642C49.4441 28.5682 49.3738 28.4082 49.2923 28.3762C49.0239 28.237 49.0303 28.0034 49.0366 27.7474C49.0366 27.5762 48.9759 27.389 49.0095 27.2242C49.1054 26.7138 48.535 26.741 48.4311 26.3906C48.4183 26.349 48.348 26.3282 48.2937 26.3074C48.2873 26.301 48.2729 26.301 48.2665 26.293C48.2522 26.2866 48.225 26.293 48.2106 26.2866C47.971 26.1762 47.7233 26.0866 47.4884 25.9506C47.3239 25.853 47.1928 25.7074 47.0411 25.5826C46.8334 25.0866 46.8142 25.0738 46.4147 25.0946C46.1527 24.5922 45.9402 25.053 45.699 25.149C45.651 25.0802 45.6239 24.9842 45.5615 24.9506C45.3762 24.8386 45.3618 24.4674 45.0806 24.5426C44.8394 24.6066 44.6668 24.5986 44.563 24.3362C44.5438 24.2882 44.4735 24.253 44.4255 24.2258C44.2194 24.109 44.0069 23.9986 43.7513 23.8546C43.3806 23.9714 42.9332 24.1026 42.5754 24.2194C42.3613 24.213 42.1551 24.1426 42.0992 24.205C41.8596 24.501 41.6519 24.8258 41.4601 25.157C41.3211 25.3842 40.8881 25.4658 40.73 25.2882C40.5782 25.357 40.4424 25.4594 40.297 25.4802C40.11 25.5074 40.0557 25.605 39.9806 25.7698C39.8847 25.9906 39.7521 26.2802 39.5668 26.349C39.1817 26.501 39.2297 26.9554 38.9405 27.1762C38.7759 27.2994 38.7823 27.6514 38.6657 27.8722C38.5849 28.0174 38.4624 28.135 38.3142 28.2098C38.0585 28.3346 37.9914 28.437 38.0873 28.7266C38.1144 28.8226 38.1704 28.9186 38.1624 29.0098C38.1208 29.3266 38.0457 29.6434 38.0042 29.9602C37.9978 29.981 37.9978 30.0082 37.9978 30.029C37.9227 30.5458 37.846 31.0626 37.8061 31.581C37.7901 31.7794 37.854 31.9938 37.9083 32.1938C37.9978 32.517 38.2039 33.3106 38.3701 33.3106C38.6097 33.3106 38.8095 33.3442 38.6784 33.7106C38.9884 33.7378 39.1466 33.909 39.3335 34.1378C39.4917 34.3362 39.725 34.7234 40.1324 34.461C40.1596 34.4466 40.2139 34.4546 40.2682 34.4754C40.3241 34.4946 40.38 34.5298 40.3864 34.557C40.4823 34.9234 41.4873 35.7362 41.8036 35.7218C42.1551 35.709 43.0499 35.549 43.6618 35.4882C43.6347 36.4178 43.5867 38.0162 43.518 38.6994C43.4829 39.0722 43.4142 39.3874 43.3391 39.6642C42.3964 39.9394 41.4601 40.2722 40.5238 40.677C38.6848 41.4815 36.863 42.3249 35.0595 43.2066C34.9349 42.9442 34.8039 42.5106 34.7352 41.773C34.6809 41.1874 34.6457 39.7954 34.6329 39.0578C34.7624 39.0513 35.3839 39.093 35.5884 38.9682C35.6363 39.0578 35.6715 39.1201 35.6779 39.1474C35.8376 39.1681 35.9878 39.141 36.0645 39.2098C36.1939 39.3202 36.2706 39.3058 36.3937 39.2098C36.4704 39.1474 36.5806 39.133 36.6701 39.093C36.7452 39.0642 36.8762 39.045 36.889 38.989C36.9784 38.7266 37.2405 38.7202 37.405 38.5826C37.5009 38.4994 37.584 38.3954 37.6814 38.3074C37.723 38.2658 37.7565 38.2034 37.8045 38.189C38.1624 38.045 38.3477 37.7969 38.3078 37.3969C38.287 37.2306 38.3285 37.101 38.5075 37.0242C38.5698 36.997 38.6033 36.8594 38.6177 36.7682C38.6449 36.549 38.6097 36.3074 38.8718 36.197C38.9133 36.1761 38.9549 36.0946 38.9549 36.0466C38.9549 35.853 39.0236 35.757 39.2297 35.7986C39.244 35.6802 39.2153 35.5634 39.2648 35.501C39.4837 35.2402 39.3671 35.0402 39.2297 34.8322C39.1817 34.8194 39.1338 34.805 39.113 34.8194C38.7615 35.0322 38.5538 34.709 38.4244 34.5506C38.2662 34.3586 38.1288 34.213 37.8604 34.1922C37.9706 33.8882 37.8045 33.861 37.592 33.861C37.4482 33.861 37.2676 33.1922 37.1925 32.9234C37.1446 32.7586 37.0887 32.5794 37.1031 32.4066C37.1446 31.973 37.2069 31.5458 37.2756 31.1106C37.2676 31.1042 37.2612 31.1042 37.2548 31.1042C37.111 31.029 36.9928 30.8962 36.8698 30.7938C36.6892 30.381 36.6765 30.3666 36.3266 30.3874C36.0981 29.9666 35.9191 30.3538 35.7066 30.4354C35.6651 30.3746 35.6379 30.2978 35.5884 30.2706C35.4238 30.181 35.4174 29.8706 35.1698 29.925C34.9621 29.973 34.8119 29.973 34.7224 29.7538C34.708 29.7122 34.6457 29.685 34.6042 29.6642C34.4252 29.5682 34.2463 29.4722 34.0194 29.3538C33.6967 29.4498 33.31 29.5682 33.0016 29.6578C32.8147 29.6498 32.6358 29.5874 32.5878 29.6498C32.3817 29.8978 32.2028 30.1666 32.0302 30.4434C31.9136 30.6354 31.5413 30.7042 31.3975 30.5538C31.2665 30.6082 31.1498 30.6978 31.0188 30.7122C30.8543 30.7314 30.8111 30.8146 30.744 30.9522C30.6609 31.1394 30.5523 31.3794 30.3925 31.4418C30.057 31.5666 30.1049 31.9522 29.8493 32.1314C29.7055 32.2354 29.7119 32.5234 29.6096 32.717C29.5379 32.8417 29.4289 32.9407 29.2981 33.0002C29.0776 33.1026 29.0168 33.1922 29.0983 33.4274C29.1271 33.5026 29.175 33.5922 29.1622 33.661C29.1271 33.9298 29.0648 34.1922 29.0232 34.461C28.9545 34.909 28.8858 35.3634 28.8443 35.8114C28.8299 35.9778 28.8858 36.157 28.9338 36.3282C29.0089 36.597 29.1894 37.2658 29.3332 37.2658C29.5457 37.2658 29.7119 37.2929 29.6016 37.597C29.87 37.6241 30.0075 37.7618 30.1656 37.9554C30.303 38.1202 30.5091 38.445 30.8527 38.2241C30.8958 38.197 31.0604 38.2578 31.0747 38.3074C31.1562 38.6114 32.0302 39.293 32.305 39.2786C32.6501 39.2642 33.5864 39.0994 34.1025 39.0706C34.0753 39.837 34.0402 41.2354 33.9779 41.8226C33.8676 42.9106 33.6343 43.6066 33.449 43.9986C26.2847 47.5762 19.5662 51.4434 19.5662 51.4434H21.2118C22.9182 50.485 33.3931 45.4818 40.7843 43.765C48.1771 42.0482 58.3691 43.013 58.3691 43.013L59.4636 39.381C59.4636 39.381 57.5511 38.8786 54.6384 38.645C54.4579 38.2073 54.3468 37.7441 54.3092 37.2722C54.2469 36.605 54.2134 35.061 54.1926 34.1522C54.3056 34.1625 54.4165 34.1895 54.5217 34.2322C54.5904 34.261 54.6735 34.2194 54.7566 34.213C54.894 34.205 55.0666 34.1442 55.1624 34.205C55.4245 34.3778 55.6306 34.253 55.8718 34.109L55.9741 34.3234C56.153 34.3506 56.3256 34.3154 56.4214 34.3922C56.5732 34.5234 56.6627 34.509 56.8001 34.3922C56.8896 34.3234 57.0142 34.3026 57.1165 34.2546C57.2059 34.2194 57.3513 34.1986 57.3721 34.1298C57.468 33.813 57.7779 33.8066 57.9697 33.6482C58.0879 33.5522 58.1838 33.4274 58.2876 33.317C58.3356 33.269 58.3691 33.2002 58.4314 33.173C58.8452 33.0002 59.0577 32.7026 59.0098 32.221C58.989 32.021 59.037 31.869 59.2431 31.773C59.3134 31.7378 59.3613 31.581 59.3741 31.469C59.4092 31.2082 59.3677 30.9186 59.6697 30.7874C59.7176 30.7666 59.7655 30.6706 59.7655 30.6082C59.7655 30.381 59.8502 30.2642 60.0835 30.3042C60.0979 30.1666 60.0691 30.0226 60.125 29.9522C60.3998 29.6082 60.1794 29.3474 60.0084 29.0562ZM31.9823 19.525C31.9551 19.4706 31.6595 19.4642 31.5013 19.4082C31.3642 19.3256 31.2348 19.2308 31.1147 19.125C31.1147 19.125 31.0332 19.0562 31.0045 19.0562C30.9709 19.0562 30.7232 19.4642 30.7856 19.5186C30.8463 19.5666 31.0332 19.5938 31.2729 19.5938C31.487 19.6018 31.8241 19.6226 31.9551 19.5938C31.9823 19.573 31.9967 19.5522 31.9823 19.525Z" fill="white"/>
<path d="M30.696 19.648C30.6752 19.608 30.6608 19.56 30.648 19.5184C30.642 19.4931 30.6351 19.468 30.6273 19.4432C30.559 19.3171 30.468 19.2048 30.3589 19.112C30.3439 19.1193 30.3276 19.1237 30.3109 19.1248C30.247 19.1328 30.1991 19.1056 30.1927 19.0704C30.1863 19.0288 30.2342 18.9952 30.2965 18.9872C30.3135 18.9838 30.3311 18.9846 30.3477 18.9893C30.3644 18.994 30.3797 19.0026 30.3924 19.0144L30.8542 18.8768C30.6705 18.8039 30.4728 18.7732 30.2758 18.7872C29.9115 18.808 29.5456 18.9872 29.298 19.1328C29.2758 19.1403 29.2526 19.1446 29.2292 19.1456C29.0167 19.1808 25.2301 19.5536 24.976 19.504C24.7156 19.456 23.4214 19.1808 23.3304 18.9744C23.2425 18.7744 24.281 16.2176 24.3577 16.0656C24.722 15.28 25.1134 14.1632 25.1134 14.1632C25.1134 14.1632 25.6503 11.6272 25.2253 11.5232C25.1406 11.5024 24.9425 12.3296 24.73 12.4752C24.5367 12.6048 24.4807 11.7296 24.2267 11.944C24.0877 12.0608 24.1149 12.8608 23.9503 12.584C23.4614 11.7648 23.5445 12.888 23.4342 12.9712C22.6018 13.5776 21.886 14.2944 21.7406 14.576C21.3891 15.1488 20.6062 17.3408 20.4464 17.3344C20.1109 17.3264 17.1311 14.1024 16.9234 13.9696C16.7237 13.832 15.3001 12.1232 15.038 10.6896C14.9693 10.3168 14.645 10.3248 14.7632 12.2064C14.776 12.44 14.089 11.2624 13.9995 11.6544C13.8956 12.1088 14.335 12.536 14.1848 12.888C14.1577 12.9568 13.6416 12.6544 13.6416 12.8944C13.6416 14.8256 15.7666 19.0368 17.3644 19.6432C18.9621 20.2496 14.784 20.8624 14.5699 20.952C14.3574 21.0416 14.1992 21.2752 14.4804 21.3376C15.0876 21.4336 14.4325 21.8 14.6594 21.9584C14.776 21.9856 14.907 21.992 14.9837 22.0752C15.0588 22.1856 14.7552 22.5776 14.8799 22.6336C15.0029 22.688 16.8131 22.0544 17.5433 21.9712C17.9012 21.9312 19.0372 22.2272 20.0006 21.9712C20.9641 21.7168 23.014 20.5248 23.4486 20.4496C23.8816 20.3728 29.5871 19.9376 29.5871 19.9376C30.0904 19.9856 30.7168 19.8352 30.8542 19.7936C30.8062 19.8016 30.7423 19.7456 30.6944 19.6496L30.696 19.648Z" fill="white"/>
</svg>
